<svg xmlns="http://www.w3.org/2000/svg" xmlns:xlink="http://www.w3.org/1999/xlink" viewBox="0 0 121.98121 121.96987"><defs><linearGradient id="linear-gradient" x1="0.04247" y1="60.98494" x2="63.71467" y2="60.98494" gradientUnits="userSpaceOnUse"><stop offset="0" stop-color="#0895d3"/><stop offset="1" stop-color="#2c81d3"/></linearGradient><linearGradient id="linear-gradient-2" x1="0.01134" y1="31.86723" x2="121.98121" y2="31.86723" xlink:href="#linear-gradient"/></defs><g id="Layer_2" data-name="Layer 2"><g id="Layer_2-2" data-name="Layer 2"><path d="M59.80929,120.79423a59.8093,59.8093,0,1,1,59.80929-59.80929A59.87716,59.87716,0,0,1,59.80929,120.79423Zm0-116.59533a56.786,56.786,0,1,0,56.786,56.786A56.85054,56.85054,0,0,0,59.80929,4.1989Z" style="fill:#d3d3d3"/><path d="M61.0272,121.96987A60.98494,60.98494,0,0,1,61.0272,0a2.68727,2.68727,0,1,1,0,5.37454,55.6104,55.6104,0,0,0,0,111.22079,2.68727,2.68727,0,1,1,0,5.37454Z" style="fill:url(#linear-gradient)"/><path d="M.01134,61.01586a60.98494,60.98494,0,0,1,121.96987,0,2.68727,2.68727,0,1,1-5.37454,0,55.6104,55.6104,0,0,0-111.22079,0,2.68727,2.68727,0,1,1-5.37454,0Z" style="fill:url(#linear-gradient-2)"/></g></g></svg>